<?xml version="1.0" standalone="no"?>
<!DOCTYPE svg PUBLIC "-//W3C//DTD SVG 20010904//EN"
 "http://www.w3.org/TR/2001/REC-SVG-20010904/DTD/svg10.dtd">
<svg version="1.0" xmlns="http://www.w3.org/2000/svg"
 width="1024.000000pt" height="1024.000000pt" viewBox="0 0 1024.000000 1024.000000"
 preserveAspectRatio="xMidYMid meet">
<metadata>
Created by potrace 1.14, written by Peter Selinger 2001-2017
</metadata>
<g transform="translate(0.000000,1024.000000) scale(0.100000,-0.100000)"
fill="#000000" stroke="none">
<path d="M894 10230 c-49 -11 -126 -51 -153 -80 -80 -86 -102 -146 -96 -271 2
-49 6 -93 9 -97 2 -4 7 -30 10 -57 4 -28 8 -61 11 -75 3 -14 8 -36 10 -50 2
-14 6 -36 9 -50 10 -45 28 -135 30 -150 3 -18 26 -120 32 -138 2 -7 4 -14 5
-17 4 -18 40 -150 53 -198 9 -33 31 -102 48 -155 18 -54 33 -105 35 -115 2
-10 10 -31 18 -47 8 -16 15 -37 15 -48 0 -10 4 -22 10 -28 5 -5 11 -18 13 -29
2 -11 11 -37 20 -59 9 -21 17 -42 17 -47 0 -5 4 -17 10 -27 5 -9 37 -84 72
-167 86 -207 285 -605 369 -736 16 -25 29 -51 29 -57 0 -7 4 -12 9 -12 5 0 11
-8 14 -17 8 -24 40 -77 50 -81 4 -2 7 -10 7 -18 0 -8 3 -14 8 -14 4 0 18 -20
31 -45 13 -25 28 -45 32 -45 5 0 9 -5 9 -10 0 -15 187 -285 263 -380 7 -8 28
-35 47 -60 19 -25 38 -46 42 -48 5 -2 8 -8 8 -13 0 -5 8 -17 18 -27 9 -11 24
-28 32 -38 36 -46 107 -131 125 -150 11 -11 33 -36 48 -55 88 -108 410 -436
557 -569 46 -41 99 -89 117 -107 18 -17 33 -30 33 -28 0 2 13 -9 29 -23 52
-49 79 -72 84 -72 3 0 21 -15 40 -32 19 -18 41 -38 48 -43 8 -6 48 -37 89 -70
41 -33 102 -81 135 -105 33 -25 64 -49 70 -53 46 -37 215 -157 220 -157 4 0
13 -6 20 -12 33 -30 45 -38 55 -38 5 0 10 -4 10 -10 0 -5 4 -10 10 -10 13 0
100 -62 100 -71 0 -4 -17 -18 -37 -30 -21 -13 -40 -25 -43 -28 -3 -4 -48 -35
-100 -71 -98 -66 -241 -169 -250 -180 -3 -3 -18 -14 -33 -23 -16 -10 -38 -27
-50 -37 -12 -10 -71 -57 -132 -105 -60 -48 -111 -92 -113 -96 -2 -5 -8 -9 -13
-9 -6 0 -20 -10 -33 -22 -12 -13 -47 -43 -76 -68 -133 -111 -570 -529 -570
-544 0 -2 -24 -28 -52 -59 -47 -50 -89 -96 -153 -170 -11 -13 -36 -41 -55 -64
-19 -22 -44 -52 -55 -67 -11 -15 -29 -38 -40 -50 -11 -12 -31 -37 -45 -55 -14
-18 -30 -38 -35 -44 -6 -7 -24 -30 -40 -52 -17 -22 -33 -44 -38 -50 -16 -22
-133 -183 -142 -197 -5 -9 -37 -56 -70 -104 -33 -49 -62 -94 -65 -99 -3 -6
-20 -31 -37 -57 -18 -26 -33 -49 -33 -52 0 -8 -65 -111 -72 -114 -5 -2 -8 -8
-8 -14 0 -8 -20 -46 -108 -198 -15 -25 -27 -47 -28 -50 0 -3 -47 -98 -102
-212 -56 -114 -102 -214 -102 -223 0 -8 -4 -15 -10 -15 -5 0 -10 -6 -10 -14 0
-7 -10 -35 -22 -62 -12 -27 -23 -51 -23 -54 -1 -3 -9 -22 -18 -44 -9 -21 -17
-44 -17 -50 0 -7 -4 -16 -8 -22 -5 -5 -17 -31 -26 -59 -10 -27 -20 -57 -23
-65 -4 -8 -7 -17 -8 -20 0 -3 -14 -43 -30 -90 -16 -47 -30 -89 -31 -95 -1 -5
-12 -39 -24 -75 -12 -36 -23 -72 -25 -80 -2 -8 -14 -49 -25 -90 -12 -41 -23
-83 -25 -93 -3 -10 -7 -27 -10 -37 -3 -10 -8 -27 -10 -37 -2 -10 -12 -58 -24
-108 -30 -135 -50 -234 -57 -290 -3 -27 -7 -52 -9 -55 -17 -29 -26 -262 -11
-295 5 -11 10 -22 11 -25 16 -45 82 -130 101 -130 7 0 14 -5 16 -12 2 -6 33
-21 67 -33 60 -21 80 -22 434 -23 367 -2 439 3 459 33 4 5 8 6 8 2 0 -11 45
22 89 63 38 37 78 117 86 175 4 22 8 51 11 65 2 14 7 41 10 60 7 43 44 221 49
237 2 7 15 9 38 3 19 -4 40 -4 47 0 7 4 27 4 45 0 18 -4 38 -4 45 0 6 4 29 4
51 0 21 -4 39 -4 39 -1 0 4 27 4 61 1 33 -3 62 -3 64 1 3 3 23 3 45 -1 22 -4
43 -4 45 0 3 4 20 4 39 0 19 -4 39 -4 46 0 7 4 27 4 45 0 18 -4 38 -4 45 0 6
4 29 4 51 0 21 -4 39 -4 39 -1 0 4 27 4 61 1 33 -3 62 -3 64 1 3 3 23 3 45 -1
22 -4 43 -4 45 0 3 4 19 5 37 1 18 -4 52 -4 76 -1 23 4 42 4 42 1 0 -7 138 -4
157 3 7 3 13 2 13 -3 0 -5 18 -5 40 -1 22 4 40 4 40 0 0 -4 18 -4 40 0 22 4
40 4 40 0 0 -4 18 -4 40 0 22 4 40 4 40 0 0 -4 18 -4 40 0 22 4 40 4 40 0 0
-4 18 -4 40 0 22 4 40 4 40 0 0 -4 18 -4 40 0 22 4 40 4 40 0 0 -4 17 -4 38
-1 20 4 46 6 57 5 35 -3 89 -5 148 -4 32 0 62 -2 67 -5 6 -3 10 -2 10 3 0 4
21 6 48 2 26 -3 61 -3 77 0 17 3 44 3 61 -1 18 -3 37 -3 44 1 7 4 26 4 44 0
17 -4 40 -4 51 0 11 4 29 4 40 0 11 -4 29 -4 40 0 11 4 31 4 44 0 14 -3 45 -3
68 0 24 4 46 4 48 0 3 -4 22 -4 42 -1 21 4 49 4 63 1 14 -4 34 -4 45 0 11 4
31 4 45 0 14 -4 34 -4 45 0 11 4 29 4 40 0 11 -4 30 -4 41 1 12 4 24 5 27 2 8
-7 184 -6 197 2 5 3 10 2 10 -3 0 -5 17 -6 40 -2 22 4 40 4 40 0 0 -4 18 -4
40 0 22 4 40 4 40 0 0 -4 18 -4 40 0 22 4 40 4 40 0 0 -4 18 -4 40 0 22 4 40
4 40 0 0 -4 18 -4 40 0 22 4 40 4 40 0 0 -4 18 -4 40 0 23 4 40 3 40 -2 0 -5
4 -7 9 -3 12 7 159 10 166 3 3 -3 22 -2 43 1 20 4 51 4 69 0 17 -3 37 -3 43 1
6 4 29 4 51 0 21 -4 39 -4 39 -1 0 4 27 4 61 1 33 -3 62 -3 64 1 3 3 23 3 45
-1 22 -4 43 -4 45 0 3 4 20 4 39 0 19 -4 39 -4 46 0 7 4 27 4 45 0 18 -4 38
-4 45 0 6 4 29 4 51 0 21 -4 39 -4 39 -1 0 4 27 4 61 1 33 -3 62 -3 64 1 3 3
23 3 45 -1 22 -4 43 -4 45 0 3 4 19 5 37 1 18 -4 52 -4 76 -1 23 4 42 4 42 1
0 -7 138 -4 157 3 7 3 13 2 13 -3 0 -5 18 -5 40 -1 22 4 40 4 40 0 0 -4 18 -4
40 0 22 4 40 4 40 0 0 -4 18 -4 40 0 22 4 40 4 40 0 0 -4 18 -4 40 0 22 4 40
4 40 0 0 -4 18 -4 40 0 22 4 40 4 40 0 0 -4 18 -4 40 0 22 4 40 4 40 0 0 -4
17 -4 38 -1 20 4 46 6 57 5 35 -3 89 -5 148 -4 32 0 62 -2 67 -5 6 -3 10 -1
10 5 0 6 4 9 9 5 6 -3 38 -5 73 -5 35 1 77 0 93 -1 17 0 37 -1 45 0 13 1 47 0
88 -2 7 0 15 -12 18 -26 3 -14 10 -42 15 -61 14 -58 36 -179 45 -245 3 -22 8
-47 11 -55 3 -8 7 -22 8 -31 6 -57 93 -153 175 -192 44 -21 55 -22 450 -22
l405 0 57 28 c87 43 145 113 175 212 12 39 8 120 -12 245 -3 19 -6 42 -7 50 0
12 -23 128 -63 330 -7 35 -77 307 -85 330 -9 27 -53 170 -56 183 -1 4 -3 9 -4
12 -1 3 -3 8 -5 13 -2 9 -7 24 -30 87 -9 28 -22 66 -28 85 -6 19 -14 37 -17
40 -3 3 -6 14 -8 24 -2 10 -14 43 -27 73 -13 29 -24 54 -24 56 0 1 -4 15 -10
30 -6 16 -11 30 -11 32 0 5 -39 94 -81 183 -16 34 -29 69 -29 77 0 8 -4 15 -9
15 -5 0 -13 10 -16 23 -9 29 -102 216 -116 234 -6 7 -8 13 -4 13 4 0 3 6 -3
12 -5 7 -29 49 -53 93 -23 44 -73 131 -111 194 -37 63 -68 118 -68 123 0 4 -4
8 -10 8 -5 0 -10 4 -10 10 0 8 -131 214 -162 255 -4 6 -51 71 -105 145 -53 74
-99 137 -102 140 -4 3 -20 23 -36 45 -32 43 -35 47 -90 115 -223 273 -539 604
-795 831 -41 37 -93 83 -115 103 -66 60 -64 60 -141 9 -38 -26 -70 -50 -72
-55 -2 -4 -8 -8 -14 -8 -12 0 -102 -61 -106 -72 -2 -4 -8 -8 -13 -8 -6 0 -47
-24 -92 -53 -135 -88 -142 -92 -149 -89 -5 1 -8 -2 -8 -8 0 -5 -7 -10 -15 -10
-8 0 -15 -4 -15 -9 0 -5 -8 -11 -17 -14 -10 -4 -34 -16 -55 -29 -36 -23 -125
-75 -183 -108 -16 -9 -71 -40 -121 -68 -51 -29 -96 -52 -102 -52 -6 0 -12 -3
-14 -7 -1 -5 -29 -21 -62 -37 l-58 -29 23 -21 c13 -11 40 -33 59 -48 19 -15
49 -38 65 -53 17 -14 52 -45 79 -68 88 -76 99 -87 93 -93 -8 -8 -84 -7 -97 1
-5 3 -10 2 -10 -3 0 -5 -17 -6 -40 -2 -22 4 -40 4 -40 0 0 -4 -16 -4 -35 0
-19 4 -37 4 -40 0 -4 -7 -75 -3 -83 5 -2 2 -14 0 -26 -5 -13 -4 -29 -5 -36 0
-7 5 -23 4 -36 0 -12 -5 -25 -6 -28 -3 -8 8 -256 9 -256 1 0 -4 -13 -3 -29 2
-15 4 -34 4 -42 0 -7 -5 -17 -6 -22 -3 -5 3 -44 5 -86 4 -42 -1 -85 -1 -96 -1
-11 1 -27 1 -35 1 -8 -1 -28 -1 -45 0 -16 0 -36 0 -42 0 -18 -1 -39 -1 -65 -1
-13 0 -34 -1 -48 -3 -14 -2 -37 0 -51 4 -15 4 -32 3 -39 -1 -7 -5 -23 -5 -34
0 -11 4 -33 4 -48 -1 -16 -4 -28 -5 -28 -1 0 8 -123 7 -136 0 -5 -3 -18 -2
-29 2 -11 4 -30 4 -42 -1 -12 -5 -25 -4 -28 1 -3 5 -18 5 -35 0 -17 -5 -30 -6
-30 -2 0 4 -46 6 -102 4 -57 -1 -112 -2 -123 -2 -11 1 -27 1 -35 1 -8 -1 -28
-1 -45 0 -16 0 -36 0 -42 0 -18 -1 -39 -1 -65 -1 -13 0 -34 -1 -48 -3 -14 -2
-36 0 -50 4 -14 3 -35 3 -46 -1 -11 -5 -27 -4 -34 0 -7 5 -24 4 -36 0 -13 -5
-26 -6 -28 -1 -3 5 -18 6 -33 4 -16 -2 -35 -4 -43 -3 -8 0 -23 0 -32 1 -22 0
-23 15 -4 26 8 4 29 22 48 38 18 17 49 42 68 55 19 14 44 33 55 42 34 31 126
101 210 161 44 31 85 61 90 65 6 5 24 17 40 28 17 10 32 21 35 24 12 14 99 70
109 70 6 0 11 4 11 8 0 4 26 23 58 42 31 19 59 37 62 41 3 3 21 14 40 25 19
10 37 22 40 25 3 4 23 16 45 28 22 12 79 45 128 75 48 30 87 51 87 48 0 -4 4
-2 8 3 4 6 21 17 37 25 17 8 32 17 35 20 6 6 88 49 312 164 317 163 403 209
410 220 4 6 8 7 8 2 0 -5 6 -4 13 2 18 15 118 71 150 85 15 6 27 15 27 19 0 4
4 8 9 8 5 0 81 44 168 98 87 54 169 105 183 113 14 7 27 16 30 19 3 3 58 41
124 84 103 70 231 159 261 183 6 5 44 33 85 63 61 44 176 133 248 191 57 47
266 223 290 246 16 15 76 71 132 123 97 90 290 283 362 361 111 121 149 163
264 298 17 20 57 70 90 111 32 41 61 77 64 80 3 3 37 48 75 100 39 52 73 97
77 98 5 2 8 8 8 13 0 9 65 103 87 127 6 6 15 21 18 32 3 11 10 20 15 20 5 0
12 9 15 20 3 11 12 26 19 32 7 7 26 35 42 61 16 27 36 59 44 72 45 70 150 255
150 264 0 5 4 11 9 13 33 12 404 814 425 920 2 7 9 27 16 43 27 65 48 134 43
139 -4 3 -1 6 6 6 7 0 11 6 8 13 -2 6 1 23 8 37 6 14 22 61 34 105 12 44 25
87 28 95 6 14 8 22 16 53 2 6 7 30 12 52 4 22 11 47 15 55 5 8 10 29 13 45 3
17 12 59 21 95 15 66 26 119 31 155 2 11 4 20 5 20 2 0 8 29 15 70 5 35 14 90
21 125 22 129 25 264 6 304 -7 14 -17 37 -24 51 -21 46 -87 106 -146 133 l-57
27 -387 3 c-425 3 -437 1 -525 -60 -62 -42 -122 -139 -129 -208 -4 -35 -16
-105 -35 -197 -10 -54 -22 -111 -25 -128 -3 -16 -9 -33 -12 -37 -9 -8 -79 -14
-87 -7 -3 4 -22 3 -43 0 -20 -4 -48 -4 -62 -1 -14 4 -34 4 -45 0 -11 -4 -31
-4 -45 0 -14 4 -34 4 -45 0 -11 -4 -29 -4 -40 0 -11 4 -30 4 -41 -1 -12 -4
-24 -5 -27 -2 -8 7 -184 6 -197 -2 -5 -3 -10 -2 -10 3 0 5 -17 6 -40 2 -22 -4
-40 -4 -40 0 0 4 -18 4 -40 0 -22 -4 -40 -4 -40 0 0 4 -18 4 -40 0 -22 -4 -40
-4 -40 0 0 4 -18 4 -40 0 -22 -4 -40 -4 -40 0 0 4 -18 4 -40 0 -22 -4 -40 -4
-40 0 0 4 -18 4 -40 0 -23 -4 -40 -3 -40 2 0 5 -4 7 -9 3 -12 -7 -159 -10
-166 -3 -3 3 -22 2 -43 -1 -20 -4 -51 -4 -69 0 -17 3 -37 3 -43 -1 -6 -4 -29
-4 -51 0 -21 4 -39 4 -39 1 0 -4 -27 -4 -61 -1 -33 3 -62 3 -64 -1 -3 -3 -23
-3 -45 1 -22 4 -43 4 -45 0 -3 -4 -20 -4 -39 0 -19 4 -39 4 -46 0 -7 -4 -27
-4 -45 0 -18 4 -38 4 -45 0 -6 -4 -29 -4 -51 0 -21 4 -39 4 -39 1 0 -4 -27 -4
-61 -1 -33 3 -62 3 -64 -1 -3 -3 -23 -3 -45 1 -22 4 -43 4 -45 0 -3 -4 -19 -5
-37 -1 -18 4 -52 4 -75 1 -24 -4 -43 -4 -43 -1 0 7 -138 4 -157 -3 -7 -3 -13
-2 -13 3 0 5 -18 5 -40 1 -22 -4 -40 -4 -40 0 0 4 -18 4 -40 0 -22 -4 -40 -4
-40 0 0 4 -18 4 -40 0 -22 -4 -40 -4 -40 0 0 4 -18 4 -40 0 -22 -4 -40 -4 -40
0 0 4 -18 4 -40 0 -22 -4 -40 -4 -40 0 0 4 -18 4 -40 0 -22 -4 -40 -4 -40 0 0
4 -17 4 -37 1 -21 -4 -47 -6 -58 -5 -35 3 -89 5 -148 4 -32 0 -62 2 -67 5 -6
3 -10 2 -10 -3 0 -4 -21 -6 -47 -2 -27 3 -61 3 -78 0 -16 -3 -44 -3 -61 1 -18
3 -37 3 -44 -1 -7 -4 -26 -4 -44 0 -17 4 -40 4 -51 0 -11 -4 -29 -4 -40 0 -11
4 -29 4 -40 0 -11 -4 -31 -4 -44 0 -14 3 -45 3 -68 0 -24 -4 -46 -4 -48 0 -3
4 -22 4 -42 1 -21 -4 -49 -4 -63 -1 -14 4 -34 4 -45 0 -11 -4 -31 -4 -45 0
-14 4 -34 4 -45 0 -11 -4 -29 -4 -40 0 -11 4 -30 4 -41 -1 -12 -4 -24 -5 -27
-2 -8 7 -184 6 -197 -2 -5 -3 -10 -2 -10 3 0 5 -17 6 -40 2 -22 -4 -40 -4 -40
0 0 4 -18 4 -40 0 -22 -4 -40 -4 -40 0 0 4 -18 4 -40 0 -22 -4 -40 -4 -40 0 0
4 -18 4 -40 0 -22 -4 -40 -4 -40 0 0 4 -18 4 -40 0 -22 -4 -40 -4 -40 0 0 4
-18 4 -40 0 -23 -4 -40 -3 -40 2 0 5 -4 7 -9 3 -12 -7 -159 -10 -166 -3 -3 3
-22 2 -43 -1 -20 -4 -51 -4 -69 0 -17 3 -37 3 -43 -1 -6 -4 -29 -4 -51 0 -21
4 -39 4 -39 1 0 -4 -27 -4 -61 -1 -33 3 -62 3 -64 -1 -3 -3 -23 -3 -45 1 -22
4 -43 4 -45 0 -3 -4 -20 -4 -39 0 -19 4 -39 4 -46 0 -7 -4 -27 -4 -45 0 -18 4
-38 4 -45 0 -6 -4 -29 -4 -51 0 -21 4 -39 4 -39 1 0 -4 -27 -4 -61 -1 -33 3
-62 3 -64 -1 -3 -3 -23 -3 -45 1 -22 4 -43 4 -45 0 -3 -4 -20 -4 -39 0 -19 4
-40 4 -47 0 -7 -5 -17 -7 -23 -5 -6 2 -23 6 -37 9 -22 5 -28 14 -37 58 -15 71
-31 157 -48 263 -3 17 -6 37 -8 45 -7 43 -28 99 -41 110 -8 7 -15 18 -15 25 0
18 -78 83 -130 108 -44 21 -57 22 -430 23 -212 1 -399 -2 -416 -6z m1696
-1912 c0 -4 11 -3 25 2 14 5 25 6 25 1 0 -5 12 -6 28 -2 15 4 39 4 55 0 15 -4
27 -4 27 1 0 6 9 6 23 1 14 -5 30 -5 40 0 11 7 17 6 17 0 0 -7 8 -7 25 -1 14
5 25 6 25 1 0 -5 12 -6 28 -2 15 4 39 4 55 0 16 -5 27 -4 27 2 0 6 4 7 10 4
15 -9 80 -12 80 -3 0 4 11 3 25 -2 16 -6 25 -6 25 0 0 6 9 6 23 2 22 -9 75 -7
84 2 3 3 16 1 29 -4 14 -6 26 -6 29 1 4 5 12 6 18 2 6 -4 21 -7 32 -7 11 0 26
3 32 7 6 4 14 3 18 -2 3 -6 15 -7 28 -2 12 5 32 5 44 0 14 -5 25 -4 29 2 3 6
10 6 17 1 7 -5 21 -6 32 -2 11 4 30 4 42 -1 13 -5 25 -4 28 2 4 5 12 6 18 2 6
-4 21 -7 32 -7 11 0 26 3 32 7 6 4 14 3 18 -2 3 -6 15 -7 28 -2 12 5 31 5 42
1 11 -4 24 -5 29 -2 15 8 67 8 73 -1 2 -4 9 -5 14 -1 14 8 113 9 127 0 6 -3
13 -2 17 4 4 7 12 7 23 1 10 -6 23 -6 34 0 10 6 19 5 23 -1 4 -6 11 -8 16 -4
14 8 113 9 127 0 6 -3 13 -2 17 4 4 7 12 7 23 1 10 -6 23 -6 34 0 10 6 19 5
23 -1 4 -7 12 -7 25 0 13 7 21 7 25 0 4 -7 12 -7 25 0 12 6 21 7 25 0 3 -5 15
-6 28 -1 12 5 34 5 49 0 16 -4 30 -3 33 2 4 5 14 5 25 -1 13 -7 21 -7 25 0 4
7 12 7 23 1 10 -6 23 -6 34 0 10 6 19 5 23 -1 3 -5 15 -6 28 -1 12 5 34 5 49
0 16 -4 30 -3 33 2 4 5 14 5 25 -1 13 -7 21 -7 25 0 4 7 12 7 23 1 10 -6 23
-6 34 0 10 6 19 5 23 -1 3 -5 15 -6 28 -1 12 5 34 5 49 0 16 -4 30 -3 33 2 4
5 13 5 24 -1 10 -5 21 -7 24 -4 7 7 163 8 175 0 6 -3 13 -2 17 4 4 7 12 7 25
0 13 -7 21 -7 25 0 4 7 12 7 23 1 10 -6 23 -6 34 0 10 6 19 5 23 -1 3 -5 15
-6 28 -1 12 5 34 5 49 0 16 -4 30 -3 33 2 4 5 14 5 25 -1 13 -7 21 -7 25 0 4
7 12 7 23 1 10 -6 23 -6 34 0 10 6 19 5 23 -1 3 -5 15 -6 28 -1 12 5 34 5 49
0 16 -4 30 -3 33 2 4 5 14 5 25 -1 12 -6 21 -7 25 0 3 6 15 6 30 0 15 -6 27
-6 30 1 4 6 13 6 23 0 10 -6 23 -6 34 0 10 6 19 5 23 -1 4 -6 11 -8 16 -4 14
8 113 9 127 0 6 -3 13 -2 17 4 4 6 12 7 24 1 10 -6 23 -6 31 -1 8 5 18 6 24 3
14 -9 67 -9 73 0 2 4 13 3 23 -3 13 -7 21 -7 25 0 5 8 11 8 19 1 7 -6 15 -9
18 -6 8 8 184 9 196 1 6 -3 13 -2 17 4 4 7 12 7 25 0 13 -7 21 -7 25 0 4 7 12
7 23 1 10 -6 23 -6 34 0 10 6 19 5 23 -1 3 -5 15 -6 28 -1 12 5 34 5 49 0 16
-4 30 -3 33 2 4 5 14 5 25 -1 13 -7 21 -7 25 0 4 7 12 7 23 1 10 -6 23 -6 34
0 10 6 19 5 23 -1 3 -5 15 -6 28 -1 12 5 34 5 49 0 16 -4 30 -3 33 2 4 5 14 5
25 -1 12 -6 21 -7 25 0 3 6 15 6 30 0 15 -6 27 -6 30 1 4 6 13 6 23 0 10 -6
23 -6 34 0 10 6 19 5 23 -1 4 -6 11 -8 16 -4 14 8 113 9 127 0 6 -3 13 -2 17
4 4 6 12 7 24 1 10 -6 23 -6 31 -1 8 5 19 6 24 3 5 -4 22 -7 36 -7 14 0 31 3
36 7 5 3 16 2 24 -3 9 -5 19 -5 26 1 8 6 14 6 18 1 3 -6 20 -7 39 -2 18 4 43
3 56 -2 22 -8 23 -10 7 -26 -9 -10 -13 -22 -9 -25 3 -4 1 -7 -4 -7 -6 0 -21
-20 -33 -45 -24 -50 -269 -422 -294 -447 -9 -9 -16 -20 -16 -25 0 -14 -51 -64
-60 -58 -5 3 -11 1 -15 -4 -3 -6 -15 -7 -28 -2 -12 5 -32 5 -44 0 -15 -5 -23
-5 -23 2 0 6 -7 6 -19 -1 -14 -7 -22 -7 -26 0 -4 7 -11 7 -18 2 -7 -5 -21 -6
-32 -2 -11 4 -30 4 -42 -1 -15 -5 -23 -5 -23 2 0 6 -7 6 -19 -1 -14 -7 -22 -7
-26 0 -4 7 -11 7 -18 2 -7 -5 -21 -6 -32 -2 -11 4 -30 4 -42 -1 -15 -5 -23 -5
-23 2 0 6 -7 6 -19 -1 -14 -7 -22 -7 -26 0 -4 7 -11 7 -18 2 -7 -5 -21 -6 -32
-2 -11 4 -30 4 -42 -1 -15 -5 -23 -5 -23 2 0 6 -7 6 -19 -1 -14 -7 -22 -7 -26
0 -4 7 -11 7 -18 2 -7 -5 -21 -6 -32 -2 -11 4 -30 4 -42 -1 -15 -5 -23 -5 -23
2 0 6 -7 6 -19 -1 -14 -7 -22 -7 -26 0 -4 7 -11 7 -18 2 -7 -5 -21 -6 -32 -2
-11 4 -30 4 -42 -1 -15 -5 -23 -5 -23 2 0 6 -7 6 -19 -1 -14 -7 -22 -7 -26 0
-4 7 -11 7 -18 2 -7 -5 -21 -6 -32 -2 -11 4 -30 4 -42 -1 -15 -5 -23 -5 -23 2
0 6 -7 6 -19 -1 -14 -7 -22 -7 -26 0 -4 7 -11 7 -18 2 -7 -5 -21 -6 -32 -2
-11 4 -30 4 -42 -1 -15 -5 -23 -5 -23 2 0 6 -7 6 -19 -1 -14 -7 -22 -7 -26 0
-4 7 -11 7 -18 2 -7 -5 -21 -6 -32 -2 -11 4 -30 4 -42 -1 -15 -5 -23 -5 -23 2
0 6 -7 6 -19 -1 -14 -7 -22 -7 -26 0 -4 7 -11 7 -18 2 -7 -5 -21 -6 -32 -2
-11 4 -30 4 -42 -1 -15 -5 -23 -5 -23 2 0 6 -7 6 -19 -1 -14 -7 -22 -7 -26 0
-4 7 -11 7 -18 2 -7 -5 -21 -6 -32 -2 -11 4 -30 4 -42 -1 -15 -5 -23 -5 -23 2
0 6 -7 6 -19 -1 -14 -7 -22 -7 -26 0 -4 7 -11 7 -18 2 -7 -5 -21 -6 -32 -2
-11 4 -30 4 -42 -1 -15 -5 -23 -5 -23 2 0 6 -7 6 -19 -1 -14 -7 -22 -7 -26 0
-4 7 -11 7 -18 2 -7 -5 -21 -6 -32 -2 -11 4 -30 4 -42 -1 -15 -5 -23 -5 -23 2
0 6 -7 6 -19 -1 -14 -7 -22 -7 -27 1 -4 7 -10 7 -16 1 -7 -7 -19 -7 -33 -2
-13 5 -25 7 -28 4 -8 -8 -88 -10 -93 -2 -3 4 -16 3 -29 -2 -17 -6 -25 -6 -25
1 0 6 -5 7 -11 4 -16 -10 -69 -12 -75 -3 -3 4 -14 4 -24 -2 -13 -7 -21 -7 -25
0 -4 7 -12 7 -23 1 -9 -5 -23 -6 -32 -1 -9 5 -22 5 -30 0 -8 -5 -22 -4 -32 1
-10 5 -18 6 -18 2 0 -10 -47 -10 -56 0 -4 3 -15 2 -25 -3 -12 -7 -20 -7 -24 0
-4 7 -12 7 -23 1 -9 -5 -23 -6 -32 -1 -9 5 -22 5 -30 0 -8 -5 -22 -4 -32 1
-10 5 -18 6 -18 2 0 -10 -47 -10 -56 0 -4 3 -15 2 -25 -3 -12 -7 -20 -7 -24 0
-4 7 -12 7 -23 1 -9 -5 -23 -6 -32 -1 -9 5 -22 5 -30 0 -8 -5 -22 -4 -32 1
-10 5 -18 6 -18 2 0 -10 -47 -10 -56 0 -4 3 -15 2 -25 -3 -12 -7 -20 -7 -24 0
-4 7 -12 7 -23 1 -9 -5 -23 -6 -32 -1 -9 5 -22 5 -30 0 -8 -5 -22 -4 -32 1
-10 5 -18 6 -18 2 0 -10 -47 -10 -56 0 -4 3 -15 2 -25 -3 -12 -7 -20 -7 -24 0
-4 7 -12 7 -23 1 -9 -5 -23 -6 -32 -1 -9 5 -22 5 -30 0 -8 -5 -22 -4 -32 1
-10 5 -18 6 -18 2 0 -10 -47 -10 -56 0 -4 3 -15 2 -25 -3 -12 -7 -20 -7 -24 0
-4 7 -12 7 -23 1 -9 -5 -23 -6 -32 -1 -9 5 -22 5 -30 0 -8 -5 -22 -4 -32 1
-10 5 -18 6 -18 2 0 -10 -47 -10 -56 0 -4 3 -15 2 -25 -3 -12 -7 -20 -7 -24 0
-4 7 -12 7 -23 1 -9 -5 -23 -6 -32 -1 -9 5 -22 5 -30 0 -8 -5 -22 -4 -32 1
-10 5 -18 6 -18 2 0 -10 -47 -10 -56 0 -4 3 -15 2 -25 -3 -12 -7 -20 -7 -24 0
-4 6 -13 7 -24 1 -10 -6 -23 -6 -31 -1 -8 5 -21 5 -29 0 -9 -5 -23 -4 -33 1
-10 5 -18 6 -18 2 0 -4 -13 -8 -30 -8 -16 0 -30 3 -30 7 0 4 -11 3 -25 -2 -16
-6 -25 -6 -25 0 0 5 -6 7 -14 4 -10 -4 -40 28 -90 95 -41 56 -73 101 -70 101
2 0 0 6 -6 13 -30 35 -90 122 -95 139 -4 10 -11 18 -16 18 -5 0 -9 5 -9 11 0
6 -13 29 -28 52 -16 23 -40 62 -53 87 -13 25 -26 47 -29 50 -11 11 -30 50 -30
62 0 8 14 13 40 13 22 0 40 -3 40 -7z m1360 -1598 c7 4 25 4 40 0 15 -4 33 -4
41 0 7 5 17 6 22 3 8 -5 81 -6 170 -2 6 0 21 0 32 -1 27 -1 87 -1 103 -1 17 1
38 1 65 1 12 0 33 1 47 3 14 2 37 0 51 -4 15 -4 32 -3 39 1 7 5 23 5 34 0 11
-4 33 -4 48 1 16 4 28 4 28 0 0 -5 15 -5 33 -2 17 4 47 4 65 0 17 -4 34 -3 37
2 3 4 16 4 28 0 12 -5 32 -5 44 0 13 5 25 4 28 -1 3 -5 18 -5 35 0 17 5 30 5
30 0 0 -4 16 -4 34 0 19 4 37 6 39 3 4 -3 80 -5 137 -2 8 0 24 0 35 -1 27 -1
87 -1 103 -1 17 1 38 1 65 1 12 0 33 1 47 3 14 2 36 0 50 -4 14 -3 35 -3 46 1
11 5 27 4 34 0 7 -5 24 -4 36 0 13 5 26 5 28 1 3 -5 20 -5 38 -2 18 4 47 5 63
1 17 -3 44 -3 60 0 17 3 45 3 63 -1 17 -4 32 -3 32 1 0 5 13 5 29 0 15 -4 34
-4 42 0 7 5 17 6 22 3 8 -5 81 -6 170 -2 6 0 21 0 32 -1 11 0 32 -1 48 -1 15
1 33 0 40 0 6 0 37 1 67 1 30 1 59 1 63 1 5 -1 -6 -13 -25 -28 -18 -16 -38
-33 -44 -38 -32 -30 -259 -207 -314 -245 -12 -8 -34 -25 -48 -37 -15 -13 -30
-23 -33 -23 -3 0 -19 -11 -35 -25 -16 -14 -35 -25 -41 -25 -7 0 -13 -4 -13 -8
0 -5 -12 -15 -27 -23 -16 -8 -37 -22 -47 -31 -11 -10 -26 -18 -33 -18 -7 0
-13 -4 -13 -8 0 -4 -14 -17 -32 -27 -17 -11 -46 -29 -64 -40 -173 -107 -338
-205 -345 -205 -5 0 -9 -5 -9 -12 0 -6 -3 -9 -6 -5 -4 3 -23 -5 -43 -18 -19
-14 -41 -25 -48 -25 -7 0 -13 -4 -13 -9 0 -22 -46 -19 -94 8 -117 64 -292 167
-304 178 -7 7 -20 13 -28 13 -8 0 -14 4 -14 8 0 5 -11 14 -25 20 -23 11 -269
172 -369 243 -26 19 -55 39 -65 44 -9 6 -18 12 -21 15 -3 3 -44 35 -92 70 -49
36 -88 68 -88 73 0 4 -5 7 -10 7 -11 0 -23 9 -63 45 -12 11 -50 42 -84 69 -67
52 -75 61 -43 53 11 -3 22 -1 25 4 3 4 16 4 29 -1 12 -4 29 -5 36 0z m-936
-4162 c5 8 80 6 102 -2 7 -3 16 -1 19 5 4 6 13 6 23 0 10 -6 23 -6 34 0 10 5
18 6 18 2 0 -4 11 -8 25 -8 14 0 25 2 25 5 0 7 78 3 96 -4 7 -3 16 -1 19 5 4
6 13 6 23 0 10 -6 23 -6 34 0 10 5 18 6 18 2 0 -4 11 -8 25 -8 14 0 25 2 25 5
0 7 78 3 96 -4 7 -3 16 -1 19 5 4 6 13 6 23 0 10 -6 23 -6 34 0 10 5 18 6 18
2 0 -4 11 -8 25 -8 14 0 25 2 25 5 0 7 78 3 96 -4 7 -3 16 -1 19 5 4 6 13 6
23 0 10 -6 23 -6 34 0 10 5 18 6 18 2 0 -4 11 -8 25 -8 14 0 25 2 25 5 0 7 78
3 96 -4 7 -3 16 -1 19 5 4 6 13 6 23 0 10 -6 23 -6 34 0 10 5 18 6 18 2 0 -4
11 -8 25 -8 14 0 25 2 25 5 0 7 78 3 96 -4 7 -3 16 -1 19 5 4 6 13 6 23 0 10
-6 23 -6 34 0 10 5 18 6 18 2 0 -4 11 -8 25 -8 14 0 25 2 25 5 0 7 78 3 96 -4
7 -3 16 -1 19 5 4 6 13 6 23 0 10 -6 23 -6 34 0 10 5 18 6 18 2 0 -4 11 -8 25
-8 14 0 25 2 25 5 0 7 78 3 96 -4 7 -3 16 -1 19 5 4 6 13 6 23 0 10 -6 23 -6
34 0 10 5 18 6 18 2 0 -4 11 -8 25 -8 14 0 25 2 25 5 0 7 78 3 97 -4 7 -3 13
-1 13 4 0 6 9 6 23 2 22 -9 75 -7 84 2 3 3 16 1 29 -4 15 -6 26 -6 30 1 4 8 9
8 17 0 7 -7 16 -7 29 0 12 6 18 6 18 0 0 -7 8 -7 23 -2 12 5 31 5 42 1 11 -4
25 -3 32 2 7 5 14 5 18 -2 4 -7 12 -7 26 0 12 7 19 7 19 1 0 -7 8 -7 23 -2 12
5 31 5 42 1 11 -4 25 -3 32 2 7 5 14 5 18 -2 4 -7 12 -7 26 0 12 7 19 7 19 1
0 -7 8 -7 23 -2 12 5 31 5 42 1 11 -4 25 -3 32 2 7 5 14 5 18 -2 4 -7 12 -7
26 0 12 7 19 7 19 1 0 -7 8 -7 23 -2 12 5 31 5 42 1 11 -4 25 -3 32 2 7 5 14
5 18 -2 4 -7 12 -7 26 0 12 7 19 7 19 1 0 -7 8 -7 23 -2 12 5 31 5 42 1 11 -4
25 -3 32 2 7 5 14 5 18 -2 4 -7 12 -7 26 0 12 7 19 7 19 1 0 -7 8 -7 23 -2 12
5 31 5 42 1 11 -4 25 -3 32 2 7 5 14 5 18 -2 4 -7 12 -7 26 0 12 7 19 7 19 1
0 -7 8 -7 23 -2 12 5 31 5 42 1 11 -4 25 -3 32 2 7 5 14 5 18 -2 4 -7 12 -7
26 0 12 7 19 7 19 1 0 -7 8 -7 23 -2 12 5 31 5 42 1 11 -4 25 -3 32 2 7 5 14
5 18 -2 4 -7 12 -7 26 0 12 7 19 7 19 1 0 -7 8 -7 23 -2 12 5 31 5 42 1 11 -4
25 -3 32 2 7 5 14 5 18 -2 4 -7 12 -7 26 0 12 7 19 7 19 1 0 -7 8 -7 23 -2 12
5 31 5 42 1 11 -4 25 -3 32 2 7 5 14 5 18 -2 4 -7 12 -7 26 0 12 7 19 7 19 1
0 -7 8 -7 23 -2 12 5 31 5 42 1 11 -4 25 -3 32 2 7 5 14 5 18 -2 4 -7 12 -7
26 0 12 7 19 7 19 1 0 -7 8 -7 23 -2 12 5 31 5 42 1 11 -4 25 -3 32 2 7 5 14
5 18 -2 4 -7 12 -7 26 0 12 7 19 7 19 1 0 -7 9 -7 23 -2 12 5 32 5 44 0 13 -5
25 -4 28 2 4 5 49 -50 101 -123 52 -73 102 -143 112 -156 9 -13 25 -37 34 -54
9 -16 24 -38 34 -49 9 -10 13 -19 8 -19 -5 0 -4 -4 2 -8 6 -4 28 -36 49 -72
22 -36 45 -72 52 -81 7 -8 13 -23 13 -31 0 -9 7 -19 16 -22 19 -7 10 -25 -14
-25 -9 0 -51 -1 -93 -2 -42 -1 -81 1 -87 5 -6 3 -13 2 -17 -4 -4 -7 -12 -7
-25 0 -13 7 -21 7 -25 0 -4 -7 -12 -7 -23 -1 -10 6 -23 6 -34 0 -10 -6 -19 -5
-23 1 -3 5 -15 6 -28 1 -12 -5 -34 -5 -49 0 -16 4 -30 3 -33 -2 -4 -5 -14 -5
-25 1 -13 7 -21 7 -25 0 -4 -7 -12 -7 -23 -1 -10 6 -23 6 -34 0 -10 -6 -19 -5
-23 1 -3 5 -15 6 -28 1 -12 -5 -34 -5 -49 0 -16 4 -30 3 -33 -2 -4 -5 -14 -5
-25 1 -12 6 -21 7 -25 0 -3 -6 -15 -6 -30 0 -15 6 -27 6 -30 -1 -4 -6 -13 -6
-23 0 -10 6 -23 6 -34 0 -10 -6 -19 -5 -23 1 -4 6 -11 8 -16 4 -14 -8 -113 -9
-127 0 -6 3 -13 2 -17 -4 -4 -6 -12 -7 -24 -1 -10 6 -23 6 -31 1 -8 -5 -18 -6
-24 -3 -14 9 -67 9 -73 0 -2 -4 -13 -3 -23 3 -13 7 -21 7 -25 0 -5 -8 -11 -8
-19 -1 -7 6 -15 9 -18 6 -8 -8 -184 -9 -196 -1 -6 3 -13 2 -17 -4 -4 -7 -12
-7 -25 0 -13 7 -21 7 -25 0 -4 -7 -12 -7 -23 -1 -10 6 -23 6 -34 0 -10 -6 -19
-5 -23 1 -3 5 -15 6 -28 1 -12 -5 -34 -5 -49 0 -16 4 -30 3 -33 -2 -4 -5 -14
-5 -25 1 -13 7 -21 7 -25 0 -4 -7 -12 -7 -23 -1 -10 6 -23 6 -34 0 -10 -6 -19
-5 -23 1 -3 5 -15 6 -28 1 -12 -5 -34 -5 -49 0 -16 4 -30 3 -33 -2 -4 -5 -14
-5 -25 1 -12 6 -21 7 -25 0 -3 -6 -15 -6 -30 0 -15 6 -27 6 -30 -1 -4 -6 -13
-6 -23 0 -10 6 -23 6 -34 0 -10 -6 -19 -5 -23 1 -4 6 -11 8 -16 4 -14 -8 -113
-9 -127 0 -6 3 -13 2 -17 -4 -4 -6 -12 -7 -24 -1 -10 6 -23 6 -31 1 -8 -5 -19
-6 -24 -3 -13 8 -59 8 -72 0 -5 -3 -16 -2 -24 3 -9 5 -19 5 -26 -1 -7 -6 -15
-6 -18 -1 -3 5 -26 6 -51 2 -25 -4 -48 -3 -51 2 -3 4 -10 6 -15 2 -14 -8 -113
-9 -127 0 -6 3 -13 2 -17 -4 -4 -7 -12 -7 -23 -1 -10 6 -23 6 -34 0 -10 -6
-19 -5 -23 1 -4 6 -11 8 -16 4 -14 -8 -113 -9 -127 0 -6 3 -13 2 -17 -4 -4 -7
-12 -7 -23 -1 -10 6 -23 6 -34 0 -10 -6 -19 -5 -23 1 -4 7 -12 7 -25 0 -13 -7
-21 -7 -25 0 -4 7 -12 7 -25 0 -12 -6 -21 -7 -25 0 -3 5 -15 6 -28 1 -12 -5
-34 -5 -49 0 -16 4 -30 3 -33 -2 -4 -5 -14 -5 -25 1 -13 7 -21 7 -25 0 -4 -7
-12 -7 -23 -1 -10 6 -23 6 -34 0 -10 -6 -19 -5 -23 1 -3 5 -15 6 -28 1 -12 -5
-34 -5 -49 0 -16 4 -30 3 -33 -2 -4 -5 -14 -5 -25 1 -13 7 -21 7 -25 0 -4 -7
-12 -7 -23 -1 -10 6 -23 6 -34 0 -10 -6 -19 -5 -23 1 -3 5 -15 6 -28 1 -12 -5
-34 -5 -49 0 -16 4 -30 3 -33 -2 -4 -5 -14 -5 -23 -1 -17 9 -70 7 -79 -2 -3
-3 -16 -1 -29 4 -14 6 -26 6 -29 -1 -4 -5 -12 -6 -18 -2 -6 4 -21 7 -32 7 -11
0 -26 -3 -32 -7 -6 -4 -14 -3 -18 2 -3 6 -15 7 -28 2 -12 -5 -31 -5 -42 -1
-11 4 -25 3 -32 -2 -7 -5 -14 -5 -17 1 -4 6 -16 7 -29 2 -12 -5 -32 -5 -44 0
-13 5 -25 4 -28 -2 -4 -5 -12 -6 -18 -2 -15 9 -49 9 -64 0 -6 -4 -14 -3 -18 2
-3 6 -15 7 -28 2 -12 -5 -31 -5 -42 -1 -11 4 -24 5 -29 2 -13 -7 -113 -5 -126
3 -6 3 -10 2 -10 -4 0 -7 -8 -7 -23 -2 -14 5 -30 5 -40 0 -11 -7 -17 -6 -17 0
0 7 -8 7 -25 1 -15 -6 -25 -6 -25 0 0 5 -12 5 -27 1 -16 -4 -40 -4 -55 0 -16
4 -28 3 -28 -2 0 -5 -10 -5 -23 0 -14 5 -30 5 -40 0 -11 -7 -17 -6 -17 0 0 7
-8 7 -25 1 -14 -5 -25 -6 -25 -1 0 5 -12 6 -27 2 -16 -4 -40 -4 -55 0 -16 4
-28 4 -28 -1 0 -6 -12 -5 -27 1 -17 6 -29 7 -31 1 -4 -14 -42 -2 -42 12 0 7
16 36 35 66 19 30 35 61 35 68 0 6 5 12 10 12 6 0 10 7 10 15 0 8 3 15 8 15 4
0 13 14 20 30 8 17 19 36 26 43 17 18 46 66 45 73 0 4 3 10 8 13 4 3 22 26 38
51 17 25 35 50 40 57 6 6 37 50 70 97 49 71 64 85 83 82 12 -2 22 1 22 5 0 5
11 4 25 -1 13 -5 26 -6 29 -2z"/>
</g>
</svg>
